<svg width="1281" height="851" viewBox="0 0 1281 851" fill="none" xmlns="http://www.w3.org/2000/svg">
<path d="M959 474.5L827.5 220H852.138M814 196L812 232.5M814 196L695.5 -34M814 196H786M814 196L823.5 212.5H848.797M-11.0002 196H47.9998H77.4998H105H133.5H155H181H203H236.5H264.5H289.5H317.5H342H368.5H400H425.5M812 232.5H790V778.5H778.5M812 232.5L810.5 778.5M812 232.5L951.5 474.5V618.5L870.5 709.5M778.5 778.5L735 819L-32.0002 820V799.5L735 796.5M778.5 778.5V762.864M735 796.5H738.5M735 796.5L735.133 789.5M738.5 796.5L742 609M738.5 796.5L778.5 762.864M785 602L782.5 759.5L778.5 762.864M785 602L742 609M785 602H293.5M742 609L738.5 613L738.443 616M742 609L185 611M735.133 789.5L186 793M735.133 789.5L735.641 762.864M186 793L191 616H372.5M186 793H179.5L181.885 750M186 793L258 768M738.443 616L737.117 685.5M738.443 616H600.5M185 611L182.4 727M185 611L293.5 602M181.885 750H-1.50023M181.885 750L182.075 741.5M182.075 741.5H-1.50023M182.075 741.5L182.4 727M182.4 727C177.267 727.333 166.9 726.4 166.5 720C166.416 718.663 166.389 714.699 166.421 709M293.5 602C295 600.833 295.8 598.5 287 598.5C284.165 598.5 275.451 598.6 264 598.833M792 778.5H810.5M810.5 778.5L848.5 736V728M870.5 709.5H864.5L848.5 728M870.5 709.5V704L872 438L850.5 418.5L848.5 728M372.5 616H377M372.5 616L370.951 682M372.5 786.5H368.5L368.934 768M372.5 786.5L377 616M372.5 786.5L441.5 765.5M377 616H441.5M441.5 765.5V705M441.5 765.5H553.225M441.5 705H380V700.5M441.5 705H553V700.5H380M380 700.5L441.5 687.5M555 616H559.5M555 616L554.175 685.5M555 616H441.5M559.5 616V784.5M559.5 616H600.5M559.5 784.5H553L553.225 765.5M559.5 784.5L600.5 762.864M258 768H368.934M258 768V705M368.934 768L370.951 682M258 705H370.5V698.5H193V705H258ZM553.225 765.5L554.175 685.5M194.5 697.5L274.5 679.5M274.5 679.5V618.5M274.5 679.5L370.951 682M441.5 687.5L554.175 685.5M441.5 687.5V616M563.5 698.5L600.5 687.5M563.5 698.5H736.869M563.5 698.5V704H600.5M600.5 687.5L737.117 685.5M600.5 687.5V616M737.117 685.5L736.869 698.5M736.869 698.5L736.764 704M736.764 704H600.5M736.764 704L735.641 762.864M600.5 762.864V704M600.5 762.864H735.641M264 598.833C231.021 599.506 175.34 601.289 172 605C168.252 609.164 166.585 680.609 166.421 709M264 598.833C196.833 597.778 60.6998 596.3 53.4998 598.833C52.3727 599.23 51.2534 600.337 50.1499 602M26.4998 709C20.9998 707 27.9998 679.5 31.9998 665C35.4988 652.316 42.4414 613.614 50.1499 602M26.4998 709C30.8998 710.6 121.614 709.667 166.421 709M26.4998 709H-52.5003C-55.0003 672.389 -31.0003 599.1 -21.0003 598.833C-8.50026 598.5 50.8 593 50.1499 602M934.5 449.5V493M939 458V497.5M944 466.5L943 500.5M934.5 499V539M939 502.5V540M939 548.5V583.5M934.5 546V585.5M934.5 593.5V632.5M940.5 625.5V591M965.5 474.5L852.138 220M742 -34L848.797 212.5M972 473.5L878.769 220M790 -19.5L876.011 212.5M978.5 474.5L904.18 220M835.5 -19.5L901.989 212.5M985.5 474.5L931.117 220M878.769 -24.5L929.514 212.5M990.5 474.5L955.781 220H931.117M924.5 -19.5L954.758 212.5H929.514M786 196L650.5 -34M786 196H758M758 196L612 -24.5M758 196H731M731 196L573 -19.5M731 196H702.5M702.5 196L524 -24.5M702.5 196H673.5M673.5 196L470 -34M673.5 196H645M645 196L425.5 -34M645 196H619M619 196L389.5 -34M619 196H589M589 196L342 -44M589 196H560.5M560.5 196L287 -44M560.5 196H532M532 196L230.5 -52M532 196H508M508 196L203 -34M508 196H482.5M174 -24.5L482.5 196M482.5 196H456.5M105 -44L456.5 196M456.5 196H425.5M93.4998 -19.5L425.5 196M1030.5 592L1029 529.5H978.5V591L997 591.115M1030.5 592L1013.75 591.558M1030.5 592L1176 849.793M957.5 520V609M963.5 526.5V602M957.5 478H990.5M959 481.5H967.5M970 499H972M970 502.5H994M962 482L972 499M972 499H980.5M967.5 481.5L976 498.5M967.5 481.5H974.5M974.5 481.5L980.5 499M974.5 481.5H979.5M980.5 499H985M979.5 481.5L985 499M979.5 481.5H985M985 499H989.5M985 481.5H990.5L994 499H989.5M985 481.5L989.5 499M1146.5 709.5L1065.5 618.5V474.5L1205 232.5L1206.5 778.5L1168.5 736V728M1146.5 709.5H1152.5L1168.5 728M1146.5 709.5V704L1145 438L1166.5 418.5L1168.5 728M1082.5 449.5V493M1078 458V497.5M1073 466.5L1074 500.5M1082.5 499V539M1078 502.5V540M1078 548.5V583.5M1082.5 546V585.5M1082.5 593.5V632.5M1076.5 625.5V591M1047 473.5L1280 -24.5M1037.5 473.5L1236 -24.5M1059.5 520V609M1053.5 526.5V602M1059.5 478H1026.5M1058 481.5H1049.5M1047 499H1045M1047 502.5H1023M1055 482L1045 499M1045 499H1036.5M1049.5 481.5L1041 498.5M1049.5 481.5H1042.5M1042.5 481.5L1036.5 499M1042.5 481.5H1037.5M1036.5 499H1032M1037.5 481.5L1032 499M1037.5 481.5H1032M1032 499H1027.5M1032 481.5H1026.5L1023 499H1027.5M1032 481.5L1027.5 499M848.797 212.5H876.011M876.011 212.5H901.989M901.989 212.5H929.514M931.117 220H904.18M904.18 220H878.769M878.769 220H852.138M984.5 591.115L835 849.793M997 591.115L950.5 849.793M997 591.115L1013.75 591.558M1013.75 591.558L1065.5 849.793M816.5 759.5L841 731V634.5L816.5 643.5V759.5ZM816.5 631.5L842 621V520L816.5 515.5V631.5ZM816.5 504L843.5 511.5V412L816.5 388.5V504ZM816.5 375L843.5 402.5V301L816.5 256V375ZM850.5 407V308L872 343V429L850.5 407ZM874.5 348.5V434.5L904.5 463.5V398.5L874.5 348.5ZM874.5 440L904.5 470.5V531.5L874.5 522.5V440ZM874.5 529.5L904.5 536V598.5L873 609L874.5 529.5ZM873 616L904.5 604V665.5L873 698.5V616ZM907.5 662L921.5 647V598.5L907.5 604V662ZM907.5 597L921.5 592V541L907.5 537.5V597ZM907.5 531.5L921.5 536V485L908.5 473.5L907.5 531.5ZM908.5 466.5L921.5 480V426.5L907.5 404L908.5 466.5ZM926 643.5L930.5 634.5V493.5L926 490.5V642V643.5ZM924.5 481.5L929 486.5V439L924.5 432.5V481.5ZM945.5 503L950 507.5L950.5 474.5L945.5 468V502.5V503ZM945 508L950 512.5V546L945.5 543L945 508ZM945.5 546.5L950 549.5V581L945.5 583.5V546.5ZM945.5 587L950 584V617.5L945.5 623V587ZM1200.5 759.5L1176 731V634.5L1200.5 643.5V759.5ZM1200.5 631.5L1176 621L1173.5 522.5L1200.5 515.5V631.5ZM1200.5 504L1173.5 511.5V412L1200.5 388.5V504ZM1200.5 375L1173.5 402.5V301L1200.5 256V375ZM1166.5 407V308L1145 343V429L1166.5 407ZM1142.5 348.5V434.5L1112.5 463.5V398.5L1142.5 348.5ZM1142.5 441.5L1112.5 470.5V531.5L1142.5 522.5V441.5ZM1142.5 529.5L1112.5 536V598.5L1144 609L1142.5 529.5ZM1144 616L1112.5 604V665.5L1144 698.5V616ZM1109.5 662L1095.5 647V598.5L1109.5 604V662ZM1109.5 597L1095.5 592V541L1109.5 537.5V597ZM1109.5 531.5L1095.5 536V485L1108.5 473.5L1109.5 531.5ZM1108.5 466.5L1095.5 480V426.5L1109.5 404L1108.5 466.5ZM1091 643.5L1086.5 634.5V493.5L1091 490.5V642V643.5ZM1092.5 481.5L1088 486.5V439L1092.5 432.5V481.5ZM1071.5 503L1067 507.5L1066.5 474.5L1071.5 468V502.5V503ZM1072 508L1067 512.5V546L1071.5 543L1072 508ZM1071.5 546.5L1067 549.5V581L1071.5 583.5V546.5ZM1071.5 587L1067 584V617.5L1071.5 623V587Z" stroke="url(#paint0_linear_3:270)" stroke-width="2" stroke-linecap="round" stroke-linejoin="round"/>
<defs>
<linearGradient id="paint0_linear_3:270" x1="-128.356" y1="525" x2="1222.61" y2="525" gradientUnits="userSpaceOnUse">
<stop offset="0.547744" stop-color="#24C647" stop-opacity="0.57"/>
<stop offset="1" stop-color="#24C647" stop-opacity="0"/>
</linearGradient>
</defs>
</svg>
